<svg width="512" height="512" viewBox="0 0 512 512" fill="none" xmlns="http://www.w3.org/2000/svg">
  <!-- 圆角矩形背景，使用渐变 -->
  <rect width="512" height="512" rx="120" fill="url(#gradient)"/>
  
  <!-- 简约的R字母路径 -->
  <path d="M200 140H300C330 140 350 160 350 190V220C350 240 335 255 315 255H250V320C250 330 242 338 232 338C222 338 214 330 214 320V255H200C190 255 182 247 182 237V150C182 140 190 140 200 140ZM250 215H315C325 215 330 205 330 195V185C330 175 325 175 315 175H250V215Z" fill="white"/>
  
  <defs>
    <linearGradient id="gradient" x1="0" y1="0" x2="512" y2="512" gradientUnits="userSpaceOnUse">
      <stop offset="0%" stop-color="#667eea"/>
      <stop offset="50%" stop-color="#764ba2"/>
      <stop offset="100%" stop-color="#f093fb"/>
    </linearGradient>
  </defs>
</svg>
